ffmpeg started on 2025-05-28 at 11:50:56
Report written to "D:\Convert\FFMetrics\reports\ssim_report-6.txt"
Log level: 32
Command line:
ffmpeg -hide_banner -nostdin -i "G:\\\xc0\xed\xe8\xec\xe5\\\xce\xed\xe3\xee\xe8\xed\xe3\xe8\\!_36_\xce\xf1\xe5\xed\xfc_2024\\JamClub\\SAO\\\xc0\xeb\xfc\xf2\xe5\xf0\xed\xe0\xf2\xe8\xe2\xed\xe0\xff \xab\xcf\xf0\xe8\xe7\xf0\xe0\xf7\xed\xe0\xff \xef\xf3\xeb\xff\xbb\\\xd2\xc2-2\\JamClub_Sword_Art_Online_Alternative_Gun_Gale_Online_II_12_1080p_HEVC.mkv" -i "G:\\\xc0\xed\xe8\xec\xe5\\\xce\xed\xe3\xee\xe8\xed\xe3\xe8\\!_36_\xce\xf1\xe5\xed\xfc_2024\\JamClub\\SAO\\\xc0\xeb\xfc\xf2\xe5\xf0\xed\xe0\xf2\xe8\xe2\xed\xe0\xff \xab\xcf\xf0\xe8\xe7\xf0\xe0\xf7\xed\xe0\xff \xef\xf3\xeb\xff\xbb\\\xd2\xc2-2\\JamClub_Sword_Art_Online_Alternative_Gun_Gale_Online_II_12_1080p.mp4" -lavfi "[0:v]settb=AVTB,setpts=PTS-STARTPTS,format=pix_fmts=yuv420p10,fps=24000/1001,scale=1920:1080:flags=bicubic[main];[1:v]settb=AVTB,setpts=PTS-STARTPTS,format=pix_fmts=yuv420p,fps=24000/1001,scale=1920:1080:flags=bicubic[ref];[main][ref]ssim=eof_action=endall:stats_file='D\\:/Convert/FFMetrics/logs/ssim_logfile-6.txt'" -f null -
Input #0, matroska,webm, from 'G:\Аниме\Онгоинги\!_36_Осень_2024\JamClub\SAO\Альтернативная «Призрачная пуля»\ТВ-2\JamClub_Sword_Art_Online_Alternative_Gun_Gale_Online_II_12_1080p_HEVC.mkv':
  Metadata:
    COMPATIBLE_BRANDS: isomiso2avc1mp41
    MAJOR_BRAND     : isom
    MINOR_VERSION   : 512
    ENCODER         : Lavf61.7.100
  Duration: 00:24:12.35, start: -0.001000, bitrate: 1343 kb/s
  Stream #0:0: Video: hevc (Main 10), yuv420p10le(tv, bt709, progressive), 1920x1080 [SAR 1:1 DAR 16:9], 23.98 fps, 23.98 tbr, 1k tbn (default)
      Metadata:
        HANDLER_NAME    : VideoHandler
        VENDOR_ID       : [0][0][0][0]
        ENCODER         : Lavc61.19.100 libx265
        BPS             : 1145348
        DURATION        : 00:24:12.283708333
        NUMBER_OF_FRAMES: 34820
        NUMBER_OF_BYTES : 207921299
        _STATISTICS_WRITING_APP: mkvpropedit v66.0.0 ('Josie') 64-bit
        _STATISTICS_WRITING_DATE_UTC: 2025-05-27 17:28:53
        _STATISTICS_TAGS: BPS DURATION NUMBER_OF_FRAMES NUMBER_OF_BYTES
  Stream #0:1(eng): Audio: aac (LC), 48000 Hz, stereo, fltp (default)
      Metadata:
        HANDLER_NAME    : SoundHandler
        VENDOR_ID       : [0][0][0][0]
        ENCODER         : Lavc61.19.100 aac
        BPS             : 194198
        DURATION        : 00:24:12.312000000
        NUMBER_OF_FRAMES: 68078
        NUMBER_OF_BYTES : 35254657
        _STATISTICS_WRITING_APP: mkvpropedit v66.0.0 ('Josie') 64-bit
        _STATISTICS_WRITING_DATE_UTC: 2025-05-27 17:28:53
        _STATISTICS_TAGS: BPS DURATION NUMBER_OF_FRAMES NUMBER_OF_BYTES
Input #1, mov,mp4,m4a,3gp,3g2,mj2, from 'G:\Аниме\Онгоинги\!_36_Осень_2024\JamClub\SAO\Альтернативная «Призрачная пуля»\ТВ-2\JamClub_Sword_Art_Online_Alternative_Gun_Gale_Online_II_12_1080p.mp4':
  Metadata:
    major_brand     : isom
    minor_version   : 512
    compatible_brands: isomiso2avc1mp41
    encoder         : Lavf60.16.100
  Duration: 00:24:12.33, start: 0.000000, bitrate: 4470 kb/s
  Stream #1:0[0x1](und): Video: h264 (High) (avc1 / 0x31637661), yuv420p(progressive), 1920x1080 [SAR 1:1 DAR 16:9], 4272 kb/s, 23.98 fps, 23.98 tbr, 90k tbn (default)
      Metadata:
        handler_name    : VideoHandler
        vendor_id       : [0][0][0][0]
  Stream #1:1[0x2](eng): Audio: aac (LC) (mp4a / 0x6134706D), 48000 Hz, stereo, fltp, 191 kb/s (default)
      Metadata:
        handler_name    : SoundHandler
        vendor_id       : [0][0][0][0]
Stream mapping:
  Stream #0:0 (hevc) -> settb:default
  Stream #1:0 (h264) -> settb:default
  ssim:default -> Stream #0:0 (wrapped_avframe)
  Stream #0:1 -> #0:1 (aac (native) -> pcm_s16le (native))
Output #0, null, to 'pipe:':
  Metadata:
    COMPATIBLE_BRANDS: isomiso2avc1mp41
    MAJOR_BRAND     : isom
    MINOR_VERSION   : 512
    encoder         : Lavf61.7.100
  Stream #0:0: Video: wrapped_avframe, yuv420p10le(tv, bt709, progressive), 1920x1080 [SAR 1:1 DAR 16:9], q=2-31, 200 kb/s, 23.98 fps, 23.98 tbn
      Metadata:
        encoder         : Lavc61.19.100 wrapped_avframe
  Stream #0:1(eng): Audio: pcm_s16le, 48000 Hz, stereo, s16, 1536 kb/s (default)
      Metadata:
        HANDLER_NAME    : SoundHandler
        VENDOR_ID       : [0][0][0][0]
        _STATISTICS_TAGS: BPS DURATION NUMBER_OF_FRAMES NUMBER_OF_BYTES
        BPS             : 194198
        DURATION        : 00:24:12.312000000
        NUMBER_OF_FRAMES: 68078
        NUMBER_OF_BYTES : 35254657
        _STATISTICS_WRITING_APP: mkvpropedit v66.0.0 ('Josie') 64-bit
        _STATISTICS_WRITING_DATE_UTC: 2025-05-27 17:28:53
        encoder         : Lavc61.19.100 pcm_s16le
frame=  112 fps=0.0 q=-0.0 size=N/A time=00:00:04.67 bitrate=N/A speed=8.95x    frame=  269 fps=261 q=-0.0 size=N/A time=00:00:11.21 bitrate=N/A speed=10.9x    frame=  468 fps=301 q=-0.0 size=N/A time=00:00:19.51 bitrate=N/A speed=12.6x    frame=  674 fps=327 q=-0.0 size=N/A time=00:00:28.11 bitrate=N/A speed=13.6x    frame=  891 fps=344 q=-0.0 size=N/A time=00:00:37.16 bitrate=N/A speed=14.4x    frame= 1067 fps=345 q=-0.0 size=N/A time=00:00:44.50 bitrate=N/A speed=14.4x    frame= 1264 fps=349 q=-0.0 size=N/A time=00:00:52.71 bitrate=N/A speed=14.6x    frame= 1451 fps=352 q=-0.0 size=N/A time=00:01:00.51 bitrate=N/A speed=14.7x    frame= 1644 fps=354 q=-0.0 size=N/A time=00:01:08.56 bitrate=N/A speed=14.8x    frame= 1909 fps=370 q=-0.0 size=N/A time=00:01:19.62 bitrate=N/A speed=15.4x    frame= 2166 fps=381 q=-0.0 size=N/A time=00:01:30.34 bitrate=N/A speed=15.9x    frame= 2418 fps=391 q=-0.0 size=N/A time=00:01:40.85 bitrate=N/A speed=16.3x    frame= 2662 fps=397 q=-0.0 size=N/A time=00:01:51.02 bitrate=N/A speed=16.6x    frame= 2854 fps=396 q=-0.0 size=N/A time=00:01:59.03 bitrate=N/A speed=16.5x    frame= 3059 fps=395 q=-0.0 size=N/A time=00:02:07.58 bitrate=N/A speed=16.5x    frame= 3277 fps=397 q=-0.0 size=N/A time=00:02:16.67 bitrate=N/A speed=16.6x    frame= 3492 fps=398 q=-0.0 size=N/A time=00:02:25.64 bitrate=N/A speed=16.6x    frame= 3671 fps=395 q=-0.0 size=N/A time=00:02:33.11 bitrate=N/A speed=16.5x    frame= 3840 fps=392 q=-0.0 size=N/A time=00:02:40.16 bitrate=N/A speed=16.3x    frame= 4005 fps=388 q=-0.0 size=N/A time=00:02:47.04 bitrate=N/A speed=16.2x    frame= 4156 fps=384 q=-0.0 size=N/A time=00:02:53.33 bitrate=N/A speed=  16x    frame= 4360 fps=384 q=-0.0 size=N/A time=00:03:01.84 bitrate=N/A speed=  16x    frame= 4526 fps=381 q=-0.0 size=N/A time=00:03:08.77 bitrate=N/A speed=15.9x    frame= 4688 fps=378 q=-0.0 size=N/A time=00:03:15.52 bitrate=N/A speed=15.8x    frame= 4886 fps=379 q=-0.0 size=N/A time=00:03:23.78 bitrate=N/A speed=15.8x    frame= 5128 fps=382 q=-0.0 size=N/A time=00:03:33.88 bitrate=N/A speed=15.9x    frame= 5363 fps=385 q=-0.0 size=N/A time=00:03:43.68 bitrate=N/A speed=16.1x    frame= 5589 fps=387 q=-0.0 size=N/A time=00:03:53.10 bitrate=N/A speed=16.1x    frame= 5823 fps=389 q=-0.0 size=N/A time=00:04:02.86 bitrate=N/A speed=16.2x    frame= 6048 fps=391 q=-0.0 size=N/A time=00:04:12.25 bitrate=N/A speed=16.3x    frame= 6274 fps=392 q=-0.0 size=N/A time=00:04:21.67 bitrate=N/A speed=16.4x    frame= 6467 fps=392 q=-0.0 size=N/A time=00:04:29.72 bitrate=N/A speed=16.4x    frame= 6698 fps=394 q=-0.0 size=N/A time=00:04:39.36 bitrate=N/A speed=16.4x    frame= 6931 fps=395 q=-0.0 size=N/A time=00:04:49.08 bitrate=N/A speed=16.5x    frame= 7150 fps=396 q=-0.0 size=N/A time=00:04:58.21 bitrate=N/A speed=16.5x    frame= 7387 fps=398 q=-0.0 size=N/A time=00:05:08.09 bitrate=N/A speed=16.6x    frame= 7624 fps=400 q=-0.0 size=N/A time=00:05:17.98 bitrate=N/A speed=16.7x    frame= 7865 fps=401 q=-0.0 size=N/A time=00:05:28.03 bitrate=N/A speed=16.7x    frame= 8094 fps=402 q=-0.0 size=N/A time=00:05:37.58 bitrate=N/A speed=16.8x    frame= 8354 fps=405 q=-0.0 size=N/A time=00:05:48.43 bitrate=N/A speed=16.9x    frame= 8602 fps=407 q=-0.0 size=N/A time=00:05:58.77 bitrate=N/A speed=  17x    frame= 8833 fps=408 q=-0.0 size=N/A time=00:06:08.40 bitrate=N/A speed=  17x    frame= 9053 fps=408 q=-0.0 size=N/A time=00:06:17.58 bitrate=N/A speed=  17x    frame= 9306 fps=410 q=-0.0 size=N/A time=00:06:28.13 bitrate=N/A speed=17.1x    frame= 9570 fps=412 q=-0.0 size=N/A time=00:06:39.14 bitrate=N/A speed=17.2x    frame= 9830 fps=414 q=-0.0 size=N/A time=00:06:49.99 bitrate=N/A speed=17.3x    frame=10101 fps=416 q=-0.0 size=N/A time=00:07:01.29 bitrate=N/A speed=17.4x    frame=10363 fps=418 q=-0.0 size=N/A time=00:07:12.22 bitrate=N/A speed=17.5x    frame=10636 fps=421 q=-0.0 size=N/A time=00:07:23.60 bitrate=N/A speed=17.5x    frame=10907 fps=423 q=-0.0 size=N/A time=00:07:34.91 bitrate=N/A speed=17.6x    frame=11170 fps=424 q=-0.0 size=N/A time=00:07:45.88 bitrate=N/A speed=17.7x    frame=11446 fps=426 q=-0.0 size=N/A time=00:07:57.39 bitrate=N/A speed=17.8x    frame=11698 fps=428 q=-0.0 size=N/A time=00:08:07.90 bitrate=N/A speed=17.8x    frame=11955 fps=429 q=-0.0 size=N/A time=00:08:18.62 bitrate=N/A speed=17.9x    frame=12205 fps=430 q=-0.0 size=N/A time=00:08:29.05 bitrate=N/A speed=17.9x    frame=12457 fps=431 q=-0.0 size=N/A time=00:08:39.56 bitrate=N/A speed=  18x    frame=12710 fps=432 q=-0.0 size=N/A time=00:08:50.11 bitrate=N/A speed=  18x    frame=12945 fps=432 q=-0.0 size=N/A time=00:08:59.91 bitrate=N/A speed=  18x    frame=13196 fps=433 q=-0.0 size=N/A time=00:09:10.38 bitrate=N/A speed=18.1x    frame=13452 fps=435 q=-0.0 size=N/A time=00:09:21.06 bitrate=N/A speed=18.1x    frame=13702 fps=435 q=-0.0 size=N/A time=00:09:31.48 bitrate=N/A speed=18.2x    frame=13948 fps=436 q=-0.0 size=N/A time=00:09:41.74 bitrate=N/A speed=18.2x    frame=14195 fps=437 q=-0.0 size=N/A time=00:09:52.04 bitrate=N/A speed=18.2x    frame=14410 fps=436 q=-0.0 size=N/A time=00:10:01.01 bitrate=N/A speed=18.2x    frame=14633 fps=436 q=-0.0 size=N/A time=00:10:10.31 bitrate=N/A speed=18.2x    frame=14867 fps=437 q=-0.0 size=N/A time=00:10:20.07 bitrate=N/A speed=18.2x    frame=15092 fps=437 q=-0.0 size=N/A time=00:10:29.46 bitrate=N/A speed=18.2x    frame=15345 fps=437 q=-0.0 size=N/A time=00:10:40.01 bitrate=N/A speed=18.2x    frame=15583 fps=438 q=-0.0 size=N/A time=00:10:49.94 bitrate=N/A speed=18.3x    frame=15812 fps=438 q=-0.0 size=N/A time=00:10:59.49 bitrate=N/A speed=18.3x    frame=16059 fps=438 q=-0.0 size=N/A time=00:11:09.79 bitrate=N/A speed=18.3x    frame=16288 fps=438 q=-0.0 size=N/A time=00:11:19.34 bitrate=N/A speed=18.3x    frame=16518 fps=439 q=-0.0 size=N/A time=00:11:28.93 bitrate=N/A speed=18.3x    frame=16748 fps=439 q=-0.0 size=N/A time=00:11:38.53 bitrate=N/A speed=18.3x    frame=17016 fps=440 q=-0.0 size=N/A time=00:11:49.70 bitrate=N/A speed=18.3x    frame=17224 fps=439 q=-0.0 size=N/A time=00:11:58.38 bitrate=N/A speed=18.3x    frame=17478 fps=440 q=-0.0 size=N/A time=00:12:08.97 bitrate=N/A speed=18.3x    frame=17690 fps=440 q=-0.0 size=N/A time=00:12:17.82 bitrate=N/A speed=18.3x    frame=17867 fps=438 q=-0.0 size=N/A time=00:12:25.20 bitrate=N/A speed=18.3x    frame=18061 fps=438 q=-0.0 size=N/A time=00:12:33.29 bitrate=N/A speed=18.3x    frame=18255 fps=437 q=-0.0 size=N/A time=00:12:41.38 bitrate=N/A speed=18.2x    frame=18438 fps=436 q=-0.0 size=N/A time=00:12:49.01 bitrate=N/A speed=18.2x    frame=18706 fps=437 q=-0.0 size=N/A time=00:13:00.19 bitrate=N/A speed=18.2x    frame=18962 fps=438 q=-0.0 size=N/A time=00:13:10.87 bitrate=N/A speed=18.3x    frame=19242 fps=439 q=-0.0 size=N/A time=00:13:22.55 bitrate=N/A speed=18.3x    frame=19499 fps=440 q=-0.0 size=N/A time=00:13:33.27 bitrate=N/A speed=18.3x    frame=19734 fps=440 q=-0.0 size=N/A time=00:13:43.07 bitrate=N/A speed=18.3x    frame=19967 fps=440 q=-0.0 size=N/A time=00:13:52.79 bitrate=N/A speed=18.3x    frame=20215 fps=440 q=-0.0 size=N/A time=00:14:03.13 bitrate=N/A speed=18.4x    frame=20433 fps=440 q=-0.0 size=N/A time=00:14:12.22 bitrate=N/A speed=18.4x    frame=20651 fps=440 q=-0.0 size=N/A time=00:14:21.31 bitrate=N/A speed=18.3x    frame=20884 fps=440 q=-0.0 size=N/A time=00:14:31.03 bitrate=N/A speed=18.4x    frame=21122 fps=440 q=-0.0 size=N/A time=00:14:40.96 bitrate=N/A speed=18.4x    frame=21332 fps=440 q=-0.0 size=N/A time=00:14:49.72 bitrate=N/A speed=18.3x    frame=21557 fps=440 q=-0.0 size=N/A time=00:14:59.10 bitrate=N/A speed=18.3x    frame=21802 fps=440 q=-0.0 size=N/A time=00:15:09.32 bitrate=N/A speed=18.4x    frame=22062 fps=441 q=-0.0 size=N/A time=00:15:20.16 bitrate=N/A speed=18.4x    frame=22293 fps=441 q=-0.0 size=N/A time=00:15:29.80 bitrate=N/A speed=18.4x    frame=22549 fps=442 q=-0.0 size=N/A time=00:15:40.48 bitrate=N/A speed=18.4x    frame=22808 fps=442 q=-0.0 size=N/A time=00:15:51.28 bitrate=N/A speed=18.4x    frame=23047 fps=442 q=-0.0 size=N/A time=00:16:01.25 bitrate=N/A speed=18.5x    frame=23301 fps=443 q=-0.0 size=N/A time=00:16:11.84 bitrate=N/A speed=18.5x    frame=23542 fps=443 q=-0.0 size=N/A time=00:16:21.89 bitrate=N/A speed=18.5x    frame=23805 fps=444 q=-0.0 size=N/A time=00:16:32.86 bitrate=N/A speed=18.5x    frame=24039 fps=444 q=-0.0 size=N/A time=00:16:42.62 bitrate=N/A speed=18.5x    frame=24279 fps=444 q=-0.0 size=N/A time=00:16:52.63 bitrate=N/A speed=18.5x    frame=24542 fps=445 q=-0.0 size=N/A time=00:17:03.60 bitrate=N/A speed=18.5x    frame=24796 fps=445 q=-0.0 size=N/A time=00:17:14.19 bitrate=N/A speed=18.6x    frame=25012 fps=445 q=-0.0 size=N/A time=00:17:23.20 bitrate=N/A speed=18.6x    frame=25249 fps=445 q=-0.0 size=N/A time=00:17:33.09 bitrate=N/A speed=18.6x    frame=25518 fps=446 q=-0.0 size=N/A time=00:17:44.31 bitrate=N/A speed=18.6x    frame=25776 fps=446 q=-0.0 size=N/A time=00:17:55.07 bitrate=N/A speed=18.6x    frame=26017 fps=446 q=-0.0 size=N/A time=00:18:05.12 bitrate=N/A speed=18.6x    frame=26272 fps=447 q=-0.0 size=N/A time=00:18:15.76 bitrate=N/A speed=18.6x    frame=26531 fps=447 q=-0.0 size=N/A time=00:18:26.56 bitrate=N/A speed=18.7x    frame=26786 fps=448 q=-0.0 size=N/A time=00:18:37.19 bitrate=N/A speed=18.7x    frame=26997 fps=447 q=-0.0 size=N/A time=00:18:45.99 bitrate=N/A speed=18.7x    frame=27198 fps=447 q=-0.0 size=N/A time=00:18:54.38 bitrate=N/A speed=18.6x    frame=27487 fps=448 q=-0.0 size=N/A time=00:19:06.43 bitrate=N/A speed=18.7x    frame=27760 fps=449 q=-0.0 size=N/A time=00:19:17.82 bitrate=N/A speed=18.7x    frame=28045 fps=449 q=-0.0 size=N/A time=00:19:29.71 bitrate=N/A speed=18.7x    frame=28302 fps=450 q=-0.0 size=N/A time=00:19:40.42 bitrate=N/A speed=18.8x    frame=28587 fps=451 q=-0.0 size=N/A time=00:19:52.31 bitrate=N/A speed=18.8x    frame=28864 fps=451 q=-0.0 size=N/A time=00:20:03.86 bitrate=N/A speed=18.8x    frame=29146 fps=452 q=-0.0 size=N/A time=00:20:15.67 bitrate=N/A speed=18.9x    frame=29421 fps=453 q=-0.0 size=N/A time=00:20:27.10 bitrate=N/A speed=18.9x    frame=29676 fps=453 q=-0.0 size=N/A time=00:20:37.73 bitrate=N/A speed=18.9x    frame=29950 fps=454 q=-0.0 size=N/A time=00:20:49.16 bitrate=N/A speed=18.9x    frame=30200 fps=454 q=-0.0 size=N/A time=00:20:59.59 bitrate=N/A speed=18.9x    frame=30473 fps=454 q=-0.0 size=N/A time=00:21:10.97 bitrate=N/A speed=  19x    frame=30699 fps=454 q=-0.0 size=N/A time=00:21:20.40 bitrate=N/A speed=  19x    frame=30950 fps=455 q=-0.0 size=N/A time=00:21:30.87 bitrate=N/A speed=  19x    frame=31205 fps=455 q=-0.0 size=N/A time=00:21:41.50 bitrate=N/A speed=  19x    frame=31478 fps=455 q=-0.0 size=N/A time=00:21:52.89 bitrate=N/A speed=  19x    frame=31745 fps=456 q=-0.0 size=N/A time=00:22:04.03 bitrate=N/A speed=  19x    frame=31969 fps=456 q=-0.0 size=N/A time=00:22:13.37 bitrate=N/A speed=  19x    frame=32186 fps=455 q=-0.0 size=N/A time=00:22:22.42 bitrate=N/A speed=  19x    frame=32402 fps=455 q=-0.0 size=N/A time=00:22:31.43 bitrate=N/A speed=  19x    frame=32655 fps=455 q=-0.0 size=N/A time=00:22:41.98 bitrate=N/A speed=  19x    frame=32865 fps=455 q=-0.0 size=N/A time=00:22:50.74 bitrate=N/A speed=  19x    frame=33051 fps=454 q=-0.0 size=N/A time=00:22:58.50 bitrate=N/A speed=  19x    frame=33282 fps=454 q=-0.0 size=N/A time=00:23:08.13 bitrate=N/A speed=  19x    frame=33506 fps=454 q=-0.0 size=N/A time=00:23:17.47 bitrate=N/A speed=18.9x    frame=33725 fps=454 q=-0.0 size=N/A time=00:23:26.61 bitrate=N/A speed=18.9x    frame=33926 fps=454 q=-0.0 size=N/A time=00:23:34.99 bitrate=N/A speed=18.9x    frame=34122 fps=453 q=-0.0 size=N/A time=00:23:43.17 bitrate=N/A speed=18.9x    frame=34313 fps=453 q=-0.0 size=N/A time=00:23:51.13 bitrate=N/A speed=18.9x    frame=34454 fps=451 q=-0.0 size=N/A time=00:23:57.01 bitrate=N/A speed=18.8x    frame=34697 fps=452 q=-0.0 size=N/A time=00:24:07.15 bitrate=N/A speed=18.8x    [Parsed_ssim_10 @ 000002405326dc00] SSIM Y:0.992893 (21.483245) U:0.994402 (22.519754) V:0.994331 (22.465234) All:0.993384 (21.794286)
[out#0/null @ 000002404c95fc40] video:14962KiB audio:272312KiB subtitle:0KiB other streams:0KiB global headers:0KiB muxing overhead: unknown
frame=34820 fps=452 q=-0.0 Lsize=N/A time=00:24:12.28 bitrate=N/A speed=18.8x    
